# xmcd CD database file
#
# Track frame offsets:
#	150
#	24836
#	40016
#	55963
#
# Disc length: 935 seconds
#
# Revision: 0
# Processed by: cddbd v1.5PL3 Copyright (c) Steve Scherf et al.
# Submitted via: CDex 1.50beta8
#
DISCID=2503a504
DTITLE=明星 - Faerie Punks
DYEAR=2004
DGENRE=Rock
TTITLE0=Hey There
TTITLE1=Night and Day
TTITLE2=神様の舌打ち
TTITLE3=Faerie Punks
EXTD=YEAR: 2004
EXTT0=
EXTT1=
EXTT2=
EXTT3=
PLAYORDER=
